<svg xmlns="http://www.w3.org/2000/svg" aria-hidden="true" class="css-11omhyd" viewBox="0 0 42 42"><g class="css-oro983"><path d="M33 11.9a1 1 0 0 0-1-.9h-4V9a7 7 0 0 0-7-7h-1a7 7 0 0 0-7 7v2H8.5a1 1 0 0 0-1 1L5 39a1 1 0 0 0 .6 1 1 1 0 0 0 .4 0h29a1 1 0 0 0 .7-.3 1 1 0 0 0 .3-.8l-3-27ZM7 38l2.4-25H31l2.8 25H7ZM15 9a5 5 0 0 1 5-5h1a5 5 0 0 1 5 5v2H15V9Z"/><path d="M29 25.5a8.5 8.5 0 1 1-17 0 8.5 8.5 0 0 1 17 0Z" mask="url(#a)"/><defs><mask id="a"><path fill="#fff" d="M29 25.5a8.5 8.5 0 1 1-17 0 8.5 8.5 0 0 1 17 0Z"/><path d="M24.6 27.4v-4a.7.7 0 0 0 0-.2c0-.7-.7-1.2-1.9-1.2a3 3 0 0 0-1.6.5 1.6 1.6 0 0 0-1.3-.5 3 3 0 0 0-1.6.5V22H16v1.1a.5.5 0 0 1 .5.4v3.8a.5.5 0 0 1-.4.5H16V29h2.7v-1c-.3 0-.4-.2-.4-.5V24c0-.4.3-.5.7-.5s.7.1.7.5v5h2.2v-1c-.3 0-.4-.2-.4-.5V24c0-.4.3-.5.6-.5.4 0 .7.1.7.5v5H25v-1c-.3 0-.4-.3-.4-.6Z"/></mask></defs></g><g class="css-bvxv3d"><path fill="#5A1F06" d="M28 13H13V9a7 7 0 0 1 7-7h1a7 7 0 0 1 7 7v4Zm-13-2h11V9a5 5 0 0 0-5-5h-1a5 5 0 0 0-5 5v2Z"/><path fill="#FFD200" d="M8.5 12 6 39h29l-3-27H8.5Z"/><path fill="#FFD200" d="M35 40H6a1 1 0 0 1-1-.7 1 1 0 0 1 0-.4l2.5-27a1 1 0 0 1 1-.9h23.4a1 1 0 0 1 1 .9l3.1 27a1 1 0 0 1-.2.8 1 1 0 0 1-.8.3ZM7.1 38h26.8L31 13H9.5L7.1 38Z"/><path fill="#D70100" d="M20.5 34a8.5 8.5 0 1 0 0-17 8.5 8.5 0 0 0 0 17Z"/><path fill="#fff" d="M24.6 27.4v-4a1 1 0 0 0 0-.2c-.1-.7-.7-1.2-1.9-1.2a3 3 0 0 0-1.6.5 1.6 1.6 0 0 0-1.3-.5 3 3 0 0 0-1.6.5V22H16v1.1a.5.5 0 0 1 .5.5v3.8a.5.5 0 0 1-.5.4V29h2.7v-1c-.3 0-.4-.2-.4-.5V24c0-.4.3-.5.7-.5s.7.1.7.5v5h2.2v-1c-.3 0-.4-.2-.4-.5V24c0-.4.3-.5.6-.5.4 0 .7.1.7.5v5H25v-1c-.3 0-.4-.3-.4-.6Z"/></g></svg>