<svg xmlns="http://www.w3.org/2000/svg" class="css-1wvdmax" viewBox="0 0 121 39"><path d="M115.5 4.6c.3 0 .6-.2.6-.6 0-.6-.4-.8-1-.8h-.9v2.5h.5v-1h.3l.5 1h.6l-.6-1Zm-.3-.4h-.5v-.5h.4c.2 0 .4 0 .4.2 0 .3-.1.3-.3.3Zm2 .3c0-1.5-1-2.3-2.1-2.3-1.2 0-2.2.8-2.2 2.3 0 1.4 1 2.2 2.2 2.2 1.2 0 2.2-.8 2.2-2.2Zm-2.1 1.7c-.9 0-1.6-.7-1.6-1.7s.7-1.8 1.6-1.8c.8 0 1.5.7 1.5 1.8 0 1-.7 1.7-1.5 1.7Zm-5.7 1.2h-2.6l2.1-5h3.3l-2.8 5Zm-2.5 31.2H95v-27c0-2-1.6-2.8-3.5-2.8-2 0-3.6.8-3.6 2.9v18.6c0 1.7.8 2.7 2.2 2.7v5.6H78.5v-27c0-2-1.6-2.8-3.6-2.8s-3.5.9-3.5 2.9v18.6c0 1.7.7 2.7 2.2 2.7v5.6H59.3V33h9V17.7h-7.8s1.5-1.5 1.5-4.1c0-2.4-1-4.5-2.7-6v-6h11.5v1.8C73.5 1.7 76.2 1 79.4 1c3 0 5.6 1 6.9 2.6C88.8 1.9 91.7 1 94.8 1c6.7 0 9.9 3.5 9.9 8v21.1c0 1.7.5 3 2.2 3v5.5Zm-59-5.2v5.2H36v-27c0-2-1.6-2.8-3.5-2.8-2 0-3.6.8-3.6 2.9v18.6c0 1.7.8 2.7 2.2 2.7v5.6H19.5v-27c0-2-1.6-2.8-3.6-2.8s-3.5.9-3.5 2.9v18.6c0 1.7.7 2.7 2.2 2.7v5.6H.3V33c1.7 0 2.6-1 2.6-2.7V10.1C3 8.7 2 7.6.3 7.6v-6h11.5v1.8C14.5 1.7 17.2 1 20.4 1c3 0 5.6 1 6.9 2.6C29.8 1.9 32.7 1 35.8 1c6 0 9.2 2.8 9.8 6.7v1.2A8.4 8.4 0 0 0 44 14c0 3 1.3 4.4 1.3 4.4a3.4 3.4 0 0 0-.2.2s-2.9 2.2-2.9 6.2c0 2.6 1 5 3 6.7a9.5 9.5 0 0 0 2.7 1.8Zm11.8-19.8c0 3.6-3.8 5.4-3.8 5.4l4 4c1-1 1.3-3 1.3-3H66v3.6h-1.7s-.5 1.2-1.6 2.4l1.3 1.2h2v3.5h-5.5l-1.3-1.2s-2.4 2.4-7.1 2.4c-4.6 0-7.8-3-7.8-7s4-6 4-6c-.9-1-2.2-2.2-2.2-4.8C46.2 10 49.6 8 53 8c3.8 0 6.7 2 6.7 5.7Zm-10.2 11c0 1.8 1.4 3.2 3.5 3.2 2 0 3.3-1.2 3.3-1.2l-5-5s-1.8 1-1.8 3Zm5.9-11c0-1.6-1.3-2.2-2.3-2.2-1.3 0-2.2.7-2.2 2.2 0 1.2 2.2 2.8 2.2 2.8s2.3-1 2.3-2.9Zm65.5 7c0 3-2.3 5.6-6.4 5.6-1.7 0-3.2-.6-4.3-1.3v.9h-2.8v-6h2.6c.3 1.8 2 3 4.2 3 1.5 0 2.2-1.1 2.2-1.8 0-1-.5-1.5-1.3-1.8l-3.7-1.2c-2.6-1-3.8-2.4-3.8-5 0-3 2.5-5.2 5.9-5.1 1.4 0 2.8.4 3.7 1v-.8h3v5.1h-2.8c-.4-1.2-1.9-2.3-3.6-2.3-1.2 0-1.7.7-1.7 1.6 0 1.2 1.2 1.6 4.4 2.5 3.2 1 4.4 3.3 4.4 5.6Z"/></svg>