<svg xmlns="http://www.w3.org/2000/svg" aria-hidden="true" class="css-11omhyd" viewBox="0 0 42 42"><g class="css-oro983"><path d="M37 23.8c-1 .2-5.7.2-11.2.2a5 5 0 0 0-9.8 0l-6.8-.1H5A3.4 3.4 0 0 1 2 21.8v3a4.6 4.6 0 0 0 2.8 1h4.4l6.8.1a5 5 0 0 0 9.8 0h2.4l9.3-.1a6.8 6.8 0 0 0 2.5-1.1v-3a4.5 4.5 0 0 1-3 2.1ZM23.8 26a3 3 0 0 1-5.8-1 3 3 0 0 1 5.8-1 2.7 2.7 0 0 1 0 2Z"/><path d="M2 9v27a2 2 0 0 0 2 2h34a2 2 0 0 0 2-2V9H2Zm36 27H4V11h34v25Z"/><path fill-rule="evenodd" d="M14 5v4h14V5H14Zm-1-2a1 1 0 0 0-1 1v6a1 1 0 0 0 1 1h16a1 1 0 0 0 1-1V4a1 1 0 0 0-1-1H13Z"/></g><g class="css-bvxv3d"><path fill="#5A1F06" fill-rule="evenodd" d="M14 5v4h14V5H14Zm-1-2a1 1 0 0 0-1 1v6a1 1 0 0 0 1 1h16a1 1 0 0 0 1-1V4a1 1 0 0 0-1-1H13Z"/><path fill="#0E74E1" d="M2 9h38v27a2 2 0 0 1-2 2H4a2 2 0 0 1-2-2V9Z"/><path fill="#fff" d="M21 29a4 4 0 1 0 0-8 4 4 0 0 0 0 8Z"/><path fill="#5A1F06" d="M37.1 23.8c-1 .2-5.7.2-11.2.2a5 5 0 0 0-9.9 0l-6.7-.1H4.9A3.4 3.4 0 0 1 2 21.8v3a4.6 4.6 0 0 0 2.9 1h4.3l6.8.1a5 5 0 0 0 9.9 0h2.3l9.3-.1a6.8 6.8 0 0 0 2.5-1.1v-3a4.5 4.5 0 0 1-2.9 2.1ZM23.8 26a3 3 0 0 1-5.9-1 3 3 0 0 1 5.9-1 2.7 2.7 0 0 1 0 2Z"/></g></svg>