<svg xmlns="http://www.w3.org/2000/svg" aria-hidden="true" class="css-11omhyd" viewBox="0 0 42 42"><g class="css-oro983"><path d="m32.1 18.7 5 17.6.1.7.5 1.7-8.3-3-8.6-3a57 57 0 0 0 7.3-8.6 70.8 70.8 0 0 1 4.1-5.4Zm.5-2.9a.8.8 0 0 0-.5.1 1.1 1.1 0 0 0-.5.3 70.2 70.2 0 0 0-5.1 6.8 54.7 54.7 0 0 1-8.1 9.3 1 1 0 0 0 .3 1.7l10.1 3.6 10.3 3.8a1 1 0 0 0 .4 0 .8.8 0 0 0 .7-.5v-.5a1623.7 1623.7 0 0 1-6.6-23.8 1.2 1.2 0 0 0-1-.8ZM25.8 6.2a1 1 0 0 1 0 1.4 6.7 6.7 0 0 0-1.7 5.8 13 13 0 0 0 1.8 5 1 1 0 0 1-.3 1.4 1 1 0 0 1-1.5-.3 15.1 15.1 0 0 1-2-5.9 8.7 8.7 0 0 1 2.2-7.3 1 1 0 0 1 1.4-.1Zm-16 13.6c6.1-1.3 10.8 1 12.4 2.4a1 1 0 0 1 .1 1.4 1 1 0 0 1-1.4 0 13 13 0 0 0-10.6-1.8 1 1 0 0 1-1.3-.6 1 1 0 0 1 .6-1.3H9.9Zm3.4-18.7a1 1 0 0 1 .6 1.2l-1.3 3.4h1.9A1.5 1.5 0 0 1 15.7 8l-1.1 1.9h2.2a1.5 1.5 0 0 1 1.4 1.5c0 .2 0 .5-.2.7L17 14h3.1a1 1 0 1 1 0 2h-4a1.5 1.5 0 0 1-1.5-1.5c0-.3 0-.5.2-.8L16 12h-2.2a1.5 1.5 0 0 1-1.5-1.5c0-.3 0-.6.2-.8l1.1-1.9h-1.7a1.5 1.5 0 0 1-1.5-1.5v-.5l1.6-4a1 1 0 0 1 1.3-.6Zm5.3 28.5a1 1 0 0 1-1.4 0l-2.5-2.8-.8 1.7a1.5 1.5 0 0 1-2 .6l-.6-.5-1-1.9-1 2a1.5 1.5 0 0 1-2 .6c-.3-.1-.5-.3-.6-.5L5.3 27l-1.4 2.7a1 1 0 0 1-1.4.4 1 1 0 0 1-.4-1.3L4 25.1a1.5 1.5 0 0 1 2-.6l.5.5L7.6 27l1-2a1.5 1.5 0 0 1 2.6 0l1.2 1.8.8-1.5a1.5 1.5 0 0 1 2.4-.3l3 3.2a1 1 0 0 1 0 1.4ZM7 16a2 2 0 1 0 0-4 2 2 0 0 0 0 4Zm23.5-5a1.5 1.5 0 1 0 0-3 1.5 1.5 0 0 0 0 3Z"/><path d="M33.6 16.8a2006.7 2006.7 0 0 0 5.7 20l1 3.6a.8.8 0 0 1-.6 1 .9.9 0 0 1-.5 0l-1.8-.6.7-5-1.2-6-1.6 10.1.6.3-3.3-1.3 2.7-10.2-1.9-6.4-4 11.2-1.7 3.7-2.3-.9 7-17.3s-.4-.7-1.9.8-6.2 7.8-6.2 7.8l-2.8 7.3-3-.9a1 1 0 0 1-.2-1.7 54.1 54.1 0 0 0 8-9 60.2 60.2 0 0 1 4.6-5.9l.8-1a1.2 1.2 0 0 1 1.6 0l.3.4Z"/></g><g class="css-bvxv3d"><path fill="#5A1F06" d="M25.8 6.2a1 1 0 0 1 0 1.4 6.7 6.7 0 0 0-1.7 5.8 13 13 0 0 0 1.8 5 1 1 0 0 1-.3 1.4 1 1 0 0 1-1.4-.2 15.1 15.1 0 0 1-2-6 8.7 8.7 0 0 1 2.2-7.3 1 1 0 0 1 1.3 0h.1Zm-16 13.6c6.1-1.3 10.7 1 12.4 2.4a1 1 0 0 1-.6 1.7 1 1 0 0 1-.7-.2 13 13 0 0 0-10.6-2 1 1 0 1 1-.7-1.8h.2Z"/><path fill="#FA6400" d="M13.2 1a1 1 0 0 1 .6 1.4l-1.3 3.3h1.9A1.5 1.5 0 0 1 15.7 8l-1.1 1.8h2.2a1.5 1.5 0 0 1 1.4 1.6l-.1.7L17 14h3.1a1 1 0 0 1 0 2h-4a1.5 1.5 0 0 1-1.5-1.5c0-.3 0-.5.2-.8L16 12h-2.2a1.5 1.5 0 0 1-1.5-1.5c0-.3 0-.6.2-.8l1.1-1.9h-1.7a1.5 1.5 0 0 1-1.5-1.5 2 2 0 0 1 0-.5l1.6-4a1 1 0 0 1 1.3-.7Zm5.3 28.6a1 1 0 0 1-1.4 0l-2.5-2.8-.8 1.7a1.5 1.5 0 0 1-2 .6l-.6-.5-1-1.9-1 2a1.5 1.5 0 0 1-2 .6c-.3-.1-.5-.3-.6-.5L5.3 27l-1.4 2.7a1 1 0 0 1-1.4.4 1 1 0 0 1-.4-1.3L4 25.1a1.5 1.5 0 0 1 2-.6l.5.5L7.6 27l1-2a1.5 1.5 0 0 1 2.6 0l1.2 1.9.8-1.6a1.5 1.5 0 0 1 2.4-.3l3 3.3a1 1 0 0 1-.1 1.3Z"/><path fill="#5A1F06" d="M7 16a2 2 0 1 0 0-4 2 2 0 0 0 0 4Z"/><path fill="#FA6400" d="M30.5 11a1.5 1.5 0 1 0 0-3 1.5 1.5 0 0 0 0 3Z"/><path fill="#5A1F06" d="m39 35.8-5.4-19.1a1.3 1.3 0 0 0-1.5-.7c-.2 0-.3.2-.5.3a73.3 73.3 0 0 0-5.2 6.7 54.1 54.1 0 0 1-8.1 9.3 1 1 0 0 0 0 1.4l.4.3 10.1 3.6 10.3 3.8a.8.8 0 0 0 1.1-.4 1 1 0 0 0 0-.5C40 39 39.4 37 39 35.8Z"/><path fill="#FA6400" d="m21 34.9 3.4-9.2s5.2-7.5 7-9.3c1-1.3 2-.2 2-.2l-8 20.2L21 35Zm6.9 2.5 2.2-5.2 4.4-12.7 2 7.3L33 39.3l-5.2-2Zm7.5 2.7 2.2-9.2 1.6 5.8-1 4.4-2.8-1Z"/></g></svg>