<svg xmlns="http://www.w3.org/2000/svg" aria-hidden="true" class="css-11omhyd" viewBox="0 0 42 42"><g class="css-oro983"><path d="M26.6 19.1a4 4 0 1 1 0-8 4 4 0 0 1 0 8Zm0-6a2 2 0 1 0 0 4 2 2 0 0 0 0-4Z"/><path d="M39.2 4.4a1 1 0 0 0-.8-.4h-1c-3.3.1-10.4.3-16.2 4.2A22.4 22.4 0 0 0 15 15a9.4 9.4 0 0 0-10.5 6.6 1 1 0 0 0 .3 1.1 1 1 0 0 0 1.2.1c1.5-1 4-2 5.3-1.4l-1.8 5.2a1 1 0 0 0 .3 1l2.5 2.3a1 1 0 0 0 .9.3l5.2-1.1c0 1.5-.2 3.8-2 5a1 1 0 0 0 .7 1.9h.2c2.6-.4 4.9-1.7 6.5-3.8a8 8 0 0 0 1.4-5.5c2.7-1 7.6-3 9.9-7.3 2.3-4.4 3.4-9.5 4-12.5l.3-1.5a1 1 0 0 0-.2-1Zm-5.9 13.9c-2.1 3.8-6.9 5.6-9.2 6.5l-.3.1a1 1 0 0 0-.6 1.1 6.2 6.2 0 0 1-1 4.8 7.2 7.2 0 0 1-2.5 2.1c.7-1.7.8-3.6.5-5.4a1 1 0 0 0-1-.8.6.6 0 0 0-.2 0L13.2 28l-1.6-1.5 1.9-5.2a1 1 0 0 0-.2-1c-1.4-1.5-3.6-1.3-5.6-.6a7.5 7.5 0 0 1 7.5-2.7 1 1 0 0 0 1.1-.5 20.6 20.6 0 0 1 5.9-6.6A21.2 21.2 0 0 1 28.7 7a10.3 10.3 0 0 0 6.4 7 28.7 28.7 0 0 1-1.8 4.3Zm3.8-12a69.6 69.6 0 0 1-1.3 5.8 8.3 8.3 0 0 1-5.1-5.5c2.1-.4 4.3-.6 6.5-.6v.3ZM4.5 36.6a1 1 0 0 1-.7-.3 1 1 0 0 1 0-1.4L7 32a1 1 0 1 1 1.4 1.4l-3.2 3a1 1 0 0 1-.7.4Zm-.5-4a1 1 0 0 1-.7-.3 1 1 0 0 1 0-1.4l3.1-3.1a1 1 0 0 1 1.5 0 1 1 0 0 1 0 1.4l-3.2 3a1 1 0 0 1-.7.4ZM8.5 37a1 1 0 0 1-.7-1.7l3.1-3.1a1 1 0 0 1 1.8.7 1 1 0 0 1-.3.7l-3.2 3.1a1 1 0 0 1-.7.3Z"/></g><g class="css-bvxv3d"><path fill="#00A832" d="M24 26c1.2 6-4.2 8.5-7 9 2.6-2 2.5-5.6 2.2-7.2l-6.3 1.4-2.5-2.3 2.1-5.8c-1.6-1.8-5.4-.2-7 .8a8.5 8.5 0 0 1 10-5.8 21.8 21.8 0 0 1 6.2-7c6.2-4.2 13.8-4 16.7-4-.6 2.4-1.5 8.6-4.2 13.7C31.8 23.1 26.3 25 24 26Z"/><path fill="#00A832" d="M37.5 13.2c.8-2.5 1.2-4.8 1.6-6.5l.3-1.5a1 1 0 0 0-1-1.2h-1c-2.6 0-5.2.3-7.8.8l-.4.2-1.4.3h-.2c-2.3.7-4.5 1.7-6.5 3A22.7 22.7 0 0 0 15 15a9.4 9.4 0 0 0-10.4 6.6A1 1 0 0 0 6 22.8c1.5-1 4-2 5.3-1.4l-1.8 5.1a1 1 0 0 0 .3 1.1l2.5 2.3a1 1 0 0 0 .9.3l5.2-1.2c0 1.5-.2 3.8-2 5.1a1 1 0 0 0 .7 1.8h.1a10.3 10.3 0 0 0 6.6-3.8 7.8 7.8 0 0 0 1.4-5.5c2.7-1 7.6-3 9.9-7.3a27.4 27.4 0 0 0 1.5-3.4l1-2.7Zm-.4-6.8c-.3 1.5-.7 3.7-1.4 6l-.6 1.9a26.9 26.9 0 0 1-1.8 4c-2 3.8-7 5.7-9.2 6.5l-.3.2a1 1 0 0 0-.7 1 6.1 6.1 0 0 1-.9 4.9 7 7 0 0 1-2.5 2c.7-1.7.8-3.6.5-5.4a1 1 0 0 0-1-.7.7.7 0 0 0-.2 0L13.2 28l-1.6-1.4 1.8-5.2a1 1 0 0 0-.2-1c-1.3-1.5-3.6-1.3-5.5-.6a7.5 7.5 0 0 1 7.5-2.7 1 1 0 0 0 1.1-.5 20.9 20.9 0 0 1 5.9-6.7 21.3 21.3 0 0 1 6.2-2.7 24.1 24.1 0 0 1 2-.5 40 40 0 0 1 6.8-.7v.4Z"/><path fill="#fff" d="M26.6 18.1a3 3 0 1 0 0-6 3 3 0 0 0 0 6Z"/><path fill="#5A1F06" d="M26.6 19.2a4 4 0 1 1 0-8 4 4 0 0 1 0 8Zm0-6a2 2 0 1 0 0 4 2 2 0 0 0 0-4Zm3-8.4a11.8 11.8 0 0 0 .7 2 12.9 12.9 0 0 0 6.3 6l.9.4v.2l-.6 1.7a12.3 12.3 0 0 1-.9-.3 14.9 14.9 0 0 1-8-8.5l-.3-1M8.4 32a1 1 0 0 1 0 1.3l-3.2 3.1a1 1 0 1 1-1.5-1.3l.1-.1 3.1-3.1a1 1 0 0 1 1.5 0Zm-.6-4.2a1 1 0 0 1 0 1.4l-3.1 3.1A1 1 0 1 1 3.3 31l3.1-3a1 1 0 0 1 1.4 0Zm4.5 4.6a1 1 0 0 1 0 1.4l-3.1 3a1 1 0 0 1-1.4-1.3l3.1-3.1a1 1 0 0 1 1.4 0Z"/></g></svg>